<svg xmlns="http://www.w3.org/2000/svg" xml:space="preserve" viewBox="0 0 460 460"><path d="M230 0c127.03 0 230 102.97 230 230S357.03 460 230 460l-60-230L230 0z" style="fill:#354a67"/><path d="M230 460C102.97 460 0 357.03 0 230S102.97 0 230 0v460z" style="fill:#466289"/><path d="m230 420-20-200 210 10c0 104.77-85.23 190-190 190z" style="fill:#bec8d6"/><path d="M230 40c104.77 0 190 85.23 190 190H210l20-190z" style="fill:#dae0e7"/><path d="M230 230v190c-104.77 0-190-85.23-190-190l95-30 95 30z" style="fill:#dae0e7"/><path d="M230 40v190H40c0-104.77 85.23-190 190-190z" style="fill:#fff"/><path d="M142.496 89.424h29.999v29.999h-29.999z" style="fill:#dae0e7" transform="rotate(150 157.498 104.424)"/><path d="M89.423 142.503h29.999v29.999H89.423z" style="fill:#dae0e7" transform="rotate(120 104.424 157.504)"/><path d="M89.419 287.503h29.999v29.999H89.419z" style="fill:#bec8d6" transform="rotate(60 104.426 302.504)"/><path d="M142.505 340.583h29.999v29.999h-29.999z" style="fill:#bec8d6" transform="rotate(30 157.52 355.58)"/><path d="M287.508 340.583h29.999v29.999h-29.999z" style="fill:#a3b1c4" transform="rotate(-30 302.496 355.599)"/><path d="M340.582 287.492h29.999v29.999h-29.999z" style="fill:#a3b1c4" transform="rotate(-60 355.58 302.501)"/><path d="m333.241 106.256-102.53 102.531v42.426L354.454 127.47z" style="fill:#354a67"/><path d="M181.213 159.289 160 180.502l70.711 70.711v-42.426z" style="fill:#466289"/><path d="M230 360h15v30h-15z" style="fill:#a3b1c4"/><path d="M230 70h15v30h-15zM215 360h15v30h-15z" style="fill:#bec8d6"/><path d="M215 70h15v30h-15z" style="fill:#dae0e7"/><path d="M360 230h30v15h-30z" style="fill:#a3b1c4"/><path d="M360 215h30v15h-30zM70 230h30v15H70z" style="fill:#bec8d6"/><path d="M70 215h30v15H70z" style="fill:#dae0e7"/></svg>